<?xml version="1.0"?>
<svg xmlns="http://www.w3.org/2000/svg" xmlns:xlink="http://www.w3.org/1999/xlink" xmlns:svgjs="http://svgjs.com/svgjs" version="1.1" width="512" height="512" x="0" y="0" viewBox="0 0 24 24" style="enable-background:new 0 0 512 512" xml:space="preserve"><g><path xmlns="http://www.w3.org/2000/svg" d="M20,24H4c-2.206,0-4-1.794-4-4V8c0-2.206,1.794-4,4-4h2.923L10.691,.826c.737-.656,1.88-.655,2.637,.017l3.819,3.157h2.853c2.206,0,4,1.794,4,4v12c0,2.206-1.794,4-4,4ZM4,6c-1.103,0-2,.897-2,2v12c0,1.103,.897,2,2,2H20c1.103,0,2-.897,2-2V8c0-1.103-.897-2-2-2h-3.212c-.232,0-.458-.081-.637-.229l-4.124-3.41-4.095,3.404c-.181,.152-.409,.235-.645,.235h-3.288Z" fill="#787878" data-original="#000000"/></g></svg>
